<svg xmlns="http://www.w3.org/2000/svg" viewBox="0 0 62 62" focusable="false" class="chakra-icon css-5ok4qc"><path d="M33.72,62H28.279l-.539-1.616-.013-.005c-.108-.043-.229-.091-.352-.146l-1.524.761-2.993-3H9A8.988,8.988,0,0,1,3.364,42H0V24H5V18H16V3a3,3,0,0,1,3-3H43a3,3,0,0,1,3,3V18H57v6h5V42H58.645A8.993,8.993,0,0,1,53,58H39.142l-3,3-1.523-.761c-.109.048-.225.1-.365.152L33.72,62Zm-6.35-4h0l.45.231a7.1,7.1,0,0,0,1.023.428l.48.156L29.72,60h2.56l.4-1.187.48-.157a7.194,7.194,0,0,0,1.023-.427l.45-.231,1.124.563,1.809-1.81L37,55.628l.231-.45a6.925,6.925,0,0,0,.428-1.023l.157-.479L39,53.28V50.721l-1.185-.4-.157-.481a7.053,7.053,0,0,0-.428-1.022L37,48.371l.563-1.124-1.809-1.809L34.629,46l-.45-.23a6.9,6.9,0,0,0-1.023-.428l-.48-.156L32.28,44h-2.56l-.4,1.186-.48.156a7.132,7.132,0,0,0-1.023.428l-.45.23-1.124-.562-1.809,1.809L25,48.371l-.231.45a6.924,6.924,0,0,0-.427,1.022l-.157.481L23,50.72v2.559l1.185.4.157.48a7.194,7.194,0,0,0,.427,1.023l.231.45-.563,1.123,1.809,1.81L27.37,58Zm8.777-14.993h0L40,46.854l-.762,1.523c.062.143.111.259.152.365L41,49.28v5.44l-1.615.538c-.052.132-.1.251-.152.364l.188.376H53a7,7,0,1,0,0-14,6.922,6.922,0,0,0-2.225.369l-.969.325-.305-.977a10.974,10.974,0,0,0-15.212-6.645l-.709.337-.5-.608a12.983,12.983,0,0,0-22.935,6.347l-.125.874L9.015,42A7,7,0,1,0,9,56H22.578l.188-.377c-.049-.111-.1-.228-.152-.364L21,54.72V49.279l1.616-.538c.057-.145.106-.262.152-.365l-.762-1.523L25.854,43l1.523.762c.111-.049.228-.1.365-.152L28.28,42h5.441l.539,1.616.009,0c.111.044.236.094.356.149l1.522-.762ZM52,26V40h8V26ZM2,26V40H8.319A14.823,14.823,0,0,1,10,35.583V26Zm44-6V34.037a12.829,12.829,0,0,1,4,4.033V24h5V20ZM36,28h6v4.346a13.007,13.007,0,0,1,2,.648V26H18v2.874a14.933,14.933,0,0,1,16.136,4.082A12.63,12.63,0,0,1,36,32.369V28ZM7,20v4h5v8.861a15.162,15.162,0,0,1,4-3.091V20ZM38,30v2h2V30ZM18,14V24H44V14ZM19,2a1,1,0,0,0-1,1v9H44V3a1,1,0,0,0-1-1ZM31,57a5,5,0,1,1,5-5A5.006,5.006,0,0,1,31,57Zm0-8a3,3,0,1,0,3,3A3,3,0,0,0,31,49ZM15,54H13V52h2v2Zm-4,0H9a5.006,5.006,0,0,1-5-5H6a3,3,0,0,0,3,3h2v2ZM45.491,42.375h0a7.009,7.009,0,0,0-8.243-4.153l-.5-1.939A9.114,9.114,0,0,1,39,36a8.966,8.966,0,0,1,8.346,5.625l-1.853.749ZM14.181,41.2h0l-1.96-.4A11.014,11.014,0,0,1,25.2,32.22l-.4,1.961A9.008,9.008,0,0,0,14.182,41.2ZM58,38H54V36h4v2ZM8,38H4V36H8v2Zm20.4-2.2h0a8.97,8.97,0,0,0-1.8-1.051l.8-1.832A11.127,11.127,0,0,1,29.6,34.2l-1.2,1.6ZM58,34H54V32h4v2ZM8,34H4V32H8v2Zm50-4H54V28h4v2ZM8,30H4V28H8v2Zm26-8H28V16h6v6Zm-4-4v2h2V18Zm-4,4H20V16h6v6Zm-4-4v2h2V18Zm20-8H36V4h6v6ZM38,6V8h2V6Zm-4,4H28V4h6v6ZM30,6V8h2V6Z" transform="translate(0 0)" fill="#f2f9ff"/></svg>