<svg xmlns="http://www.w3.org/2000/svg" viewBox="0 0 1343 701" fill="none"><path d="M1336.43 339.621C1336.71 339.783 1336.98 339.94 1337.23 340.093L1337.28 340.025C1337.88 339.302 1338.71 338.81 1339.63 338.633C1340.55 338.456 1341.5 338.604 1342.32 339.053V346.137C1342.56 348.487 1340.58 350.117 1336.94 352.25L1269.12 391.788C1261.5 396.35 1255.99 395.005 1248.66 390.91L926.622 205.244C924.231 203.837 923.007 202.435 922.947 200.996C922.956 195.601 922.956 193.206 922.947 193.809C923.763 193.41 924.691 193.301 925.578 193.499C926.465 193.698 927.258 194.193 927.826 194.902C927.942 195.046 928.047 195.199 928.142 195.358L1004.42 151.937C1007.22 150.352 1009.75 151.129 1015.26 154.279L1336.43 339.621Z" fill="#7E7E7E"/><path d="M1336.43 332.542C1340.3 334.816 1342.02 336.042 1342.32 339.053C1342.56 341.403 1340.58 343.032 1336.94 345.165L1269.12 384.703C1261.5 389.266 1255.99 387.92 1248.66 383.825L926.622 198.165C921.255 195.008 921.76 191.871 928.139 188.277L1004.42 144.858C1007.22 143.273 1009.75 144.05 1015.26 147.199L1336.43 332.542Z" fill="url(#paint0_linear_0_1)"/><path d="M1236.59 397.302C1240.09 399.358 1242.52 400.892 1244.09 402.678C1244.82 402.501 1245.59 402.56 1246.28 402.845V407.814L1246.31 408.035C1246.36 408.501 1246.35 408.971 1246.28 409.435C1245.83 412.591 1242.68 415.035 1237.44 418.107L1125.64 483.282C1113.08 490.802 1103.99 488.582 1091.91 481.833C1091.91 481.833 779.962 296.57 426.068 97.044C421.8 94.534 419.785 92.032 420.023 89.449C420.047 85.7964 420.059 83.9704 420.059 83.971C420.616 83.3718 421.341 82.9546 422.139 82.774C422.937 82.5935 423.771 82.6579 424.532 82.959C424.641 83.002 424.747 83.049 424.851 83.102C426.043 82.2497 427.283 81.4654 428.564 80.753L554.299 9.17302C558.922 6.56202 563.099 7.84102 572.178 13.033L1236.59 397.302Z" fill="#7E7E7E"/><path d="M1236.59 389.444C1242.97 393.192 1245.8 395.208 1246.3 400.177C1246.69 404.051 1243.42 406.736 1237.43 410.252L1125.63 475.427C1113.07 482.948 1103.98 480.727 1091.9 473.979C1091.9 473.979 779.956 293.215 426.062 89.189C417.214 83.989 418.047 78.814 428.562 72.889L554.299 1.31401C558.922 -1.29799 563.099 -0.0179925 572.178 5.17301L1236.59 389.444Z" fill="url(#paint1_linear_0_1)"/><path d="M713.724 136.202L768.368 166.311C769.763 167.08 770.929 168.204 771.747 169.571C772.564 170.937 773.005 172.496 773.024 174.088C773.043 175.68 772.639 177.249 771.853 178.634C771.067 180.019 769.928 181.171 768.552 181.972L744.66 195.872C743.293 196.667 742.16 197.808 741.374 199.18C740.588 200.553 740.178 202.108 740.185 203.689C740.191 205.27 740.614 206.822 741.411 208.188C742.208 209.554 743.351 210.685 744.724 211.469L802.265 244.36" stroke="#32C5FF" stroke-width="1.125" stroke-miterlimit="10"/><path d="M764.53 164.249L768.248 166.229C769.663 166.982 770.851 168.099 771.69 169.465C772.529 170.831 772.987 172.396 773.019 173.999C773.05 175.602 772.652 177.184 771.868 178.581C771.083 179.979 769.939 181.142 768.554 181.949L746.568 194.777" stroke="#FC722E" stroke-width="2.125" stroke-miterlimit="10" stroke-linecap="round"/><path d="M735.108 123.052L728.272 142.558C728.021 143.274 727.574 143.905 726.981 144.379C726.388 144.853 725.675 145.151 724.921 145.239L687.351 149.617C685.21 149.867 683.048 149.391 681.209 148.267L661.404 136.881C660.881 136.561 660.438 136.126 660.108 135.61C659.778 135.094 659.569 134.509 659.498 133.9L659.858 131.368C659.966 132.635 660.265 128.993 661.404 129.689L681.209 141.075C683.048 142.199 685.21 142.675 687.351 142.425L724.921 138.047C725.675 137.959 726.388 137.661 726.981 137.187C727.574 136.713 728.021 136.082 728.272 135.366L734.848 120.07C734.948 119.796 735.335 121.185 735.335 121.185C735.309 121.812 735.233 122.437 735.108 123.052V123.052Z" fill="#B1BAC9"/><path d="M666.164 112.017L659.669 131.692C659.383 132.559 659.398 133.497 659.713 134.354C660.027 135.211 660.621 135.937 661.4 136.413L681.21 147.8C683.049 148.924 685.212 149.4 687.353 149.15L724.922 144.776C725.675 144.687 726.389 144.388 726.981 143.913C727.572 143.439 728.019 142.807 728.269 142.091L735.105 122.585C735.417 121.695 735.407 120.723 735.079 119.839C734.75 118.954 734.123 118.213 733.305 117.742L713.269 106.167C711.479 105.134 709.405 104.703 707.352 104.938L669.547 109.266C668.779 109.354 668.053 109.66 667.453 110.147C666.854 110.635 666.407 111.283 666.164 112.017" fill="white"/><path d="M666.164 112.017L659.669 131.692C659.383 132.559 659.398 133.497 659.713 134.354C660.027 135.211 660.621 135.937 661.4 136.413L681.21 147.8C683.049 148.924 685.212 149.4 687.353 149.15L724.922 144.776C725.675 144.687 726.389 144.388 726.981 143.913C727.572 143.439 728.019 142.807 728.269 142.091L735.105 122.585C735.417 121.695 735.407 120.723 735.079 119.839C734.75 118.954 734.123 118.213 733.305 117.742L713.269 106.167C711.479 105.134 709.405 104.703 707.352 104.938L669.547 109.266C668.779 109.354 668.053 109.66 667.453 110.147C666.854 110.635 666.407 111.283 666.164 112.017" fill="white"/><path d="M849.858 255.802L843.022 275.308C842.771 276.024 842.324 276.655 841.731 277.129C841.138 277.603 840.425 277.901 839.671 277.989L802.101 282.367C799.96 282.617 797.798 282.141 795.959 281.017L776.154 269.631C775.631 269.311 775.188 268.876 774.858 268.36C774.528 267.844 774.319 267.259 774.248 266.65L774.608 264.118C774.716 265.385 775.015 261.743 776.154 262.439L795.959 273.825C797.798 274.949 799.96 275.425 802.101 275.175L839.671 270.797C840.425 270.709 841.138 270.411 841.731 269.937C842.324 269.463 842.771 268.832 843.022 268.116L849.598 252.82C849.698 252.546 850.085 253.935 850.085 253.935C850.059 254.562 849.983 255.187 849.858 255.802V255.802Z" fill="#B1BAC9"/><path d="M780.914 244.767L774.419 264.442C774.133 265.309 774.148 266.247 774.463 267.104C774.777 267.961 775.371 268.687 776.15 269.163L795.96 280.55C797.799 281.674 799.962 282.15 802.103 281.9L839.672 277.526C840.425 277.437 841.139 277.138 841.731 276.663C842.322 276.189 842.769 275.557 843.019 274.841L849.855 255.335C850.167 254.445 850.157 253.473 849.829 252.589C849.5 251.704 848.873 250.963 848.055 250.492L828.019 238.917C826.229 237.884 824.155 237.453 822.102 237.688L784.297 242.016C783.529 242.104 782.803 242.41 782.203 242.897C781.604 243.385 781.157 244.033 780.914 244.767" fill="white"/><path d="M780.914 244.767L774.419 264.442C774.133 265.309 774.148 266.247 774.463 267.104C774.777 267.961 775.371 268.687 776.15 269.163L795.96 280.55C797.799 281.674 799.962 282.15 802.103 281.9L839.672 277.526C840.425 277.437 841.139 277.138 841.731 276.663C842.322 276.189 842.769 275.557 843.019 274.841L849.855 255.335C850.167 254.445 850.157 253.473 849.829 252.589C849.5 251.704 848.873 250.963 848.055 250.492L828.019 238.917C826.229 237.884 824.155 237.453 822.102 237.688L784.297 242.016C783.529 242.104 782.803 242.41 782.203 242.897C781.604 243.385 781.157 244.033 780.914 244.767" fill="white"/><path d="M1042.21 294.217L1031.99 300.459L975.265 267.546L985.333 261.465L1042.21 294.217Z" fill="black" fill-opacity="0.1"/><path d="M1024.07 305.249L1013.85 311.49L957.123 278.578L967.192 272.496L1024.07 305.249Z" fill="black" fill-opacity="0.1"/><path d="M1004.12 317.207L993.903 323.448L937.176 290.536L947.245 284.454L1004.12 317.207Z" fill="black" fill-opacity="0.1"/><path d="M984.682 328.838L974.464 335.079L917.737 302.167L927.806 296.086L984.682 328.838Z" fill="black" fill-opacity="0.1"/><path d="M964.334 340.115L954.116 346.356L897.389 313.444L907.458 307.362L964.334 340.115Z" fill="black" fill-opacity="0.1"/><path d="M945.245 351.795L935.027 358.036L878.3 325.124L888.369 319.043L945.245 351.795Z" fill="black" fill-opacity="0.1"/><path d="M1141.9 231.789L1131.68 238.031L1074.95 205.118L1085.02 199.037L1141.9 231.789Z" fill="black" fill-opacity="0.1"/><path d="M1123.75 242.821L1113.54 249.063L1056.81 216.15L1066.88 210.068L1123.75 242.821Z" fill="black" fill-opacity="0.1"/><path d="M1103.81 254.779L1093.59 261.021L1036.86 228.108L1046.93 222.027L1103.81 254.779Z" fill="black" fill-opacity="0.1"/><path d="M1084.37 266.41L1074.15 272.652L1017.42 239.74L1027.49 233.658L1084.37 266.41Z" fill="black" fill-opacity="0.1"/><path d="M695.089 229.502C687.375 233.554 685.819 232.936 676.333 227.562L591.988 179.171L586.656 176.112C581.474 173.212 581.896 169.706 586.911 166.8L634.63 139.383C639.311 136.567 642.549 137.197 648.03 140.414L743.73 195.406C746.86 197.245 746.642 199.838 743.251 201.886L695.089 229.502Z" fill="black" fill-opacity="0.1"/><path d="M655.542 128.711C694.703 165.779 692.542 203.794 676.479 217.031C676.479 217.031 641.785 196.848 572.72 156.703C569.425 155.035 568.279 152.303 568.208 148.235L567.938 133.341C567.928 132.803 568.063 132.273 568.329 131.805C568.595 131.338 568.981 130.95 569.448 130.683L613.041 105.736C613.498 105.474 614.016 105.337 614.542 105.339C615.069 105.341 615.586 105.481 616.041 105.746L655.542 128.711Z" fill="#0561FC"/><path d="M718.265 169.299C700.024 172.95 683.411 182.291 670.814 195.979C674.551 202.36 676.512 209.625 676.493 217.02L723.944 190.345C723.962 182.949 722.001 175.682 718.265 169.299" fill="#0561FC"/><path d="M699.277 153.675C673.636 161.817 657.818 170.711 651.825 180.357L670.813 195.975L718.265 169.299L699.277 153.675Z" fill="#0561FC"/><path d="M699.277 153.675L651.825 180.357L639.825 157.335C637.267 152.514 635.011 148.449 628.425 144.793L608.802 133.387C608.651 133.299 608.526 133.173 608.438 133.021C608.351 132.87 608.305 132.698 608.305 132.523C608.305 132.348 608.351 132.176 608.438 132.025C608.526 131.873 608.651 131.747 608.802 131.659L649.535 107.845C649.955 107.599 650.429 107.46 650.915 107.438C651.401 107.416 651.885 107.513 652.325 107.72L674.456 118.12C679.821 121.166 683.915 124.646 687.056 130.732L699.277 153.675Z" fill="#659CEA"/><path d="M638.268 149.087L680.341 125.559L695.086 152.218L684.138 158.341C683.354 158.283 682.574 158.296 681.789 158.296C680.026 158.294 678.274 158.581 676.603 159.145C676.154 159.244 675.713 159.36 675.278 159.495C675.024 159.562 674.773 159.635 674.525 159.714C673.967 159.836 673.416 159.987 672.874 160.168C672.526 160.26 672.182 160.368 671.842 160.479C671.497 160.555 671.156 160.642 670.82 160.739C670.23 160.864 669.648 161.022 669.076 161.212C668.46 161.359 667.854 161.542 667.26 161.761C666.699 161.907 666.145 162.083 665.603 162.288C665.195 162.41 664.781 162.503 664.369 162.63C664.04 162.716 663.717 162.812 663.397 162.917C662.85 163.048 662.311 163.206 661.78 163.392C661.148 163.542 660.525 163.731 659.915 163.956C659.335 164.108 658.763 164.292 658.203 164.507L660.419 163.62H654.395C654.035 163.521 653.673 163.436 653.31 163.363C652.986 163.23 652.66 163.11 652.331 163.004C651.907 162.812 651.49 162.629 651.054 162.465C650.421 162.128 649.765 161.833 649.093 161.583C648.943 161.492 648.804 161.406 648.658 161.309C647.227 160.193 645.63 159.308 643.925 158.687L638.268 149.087Z" fill="#1F1754"/><path d="M610.909 155.853L643.143 174.828L634.77 158.771C632.733 154.012 629.156 150.076 624.614 147.594L610.898 139.621C610.905 150.442 610.908 155.853 610.909 155.853" fill="#1F1754"/><path d="M653.386 189.927C650.263 188.087 647.455 187.78 645.509 188.78L645.368 188.855L645.351 188.864L640.958 191.229C641.177 191.564 641.472 191.843 641.818 192.045C642.163 192.247 642.551 192.366 642.951 192.393C642.82 193.018 642.756 193.655 642.76 194.293C642.76 200.16 647.516 207.719 653.384 211.176C654.514 211.865 655.745 212.373 657.032 212.682C656.866 212.983 656.762 213.314 656.726 213.656C656.691 213.998 656.724 214.343 656.825 214.672L661.265 212.32C662.97 211.437 664.009 209.551 664.009 206.81C664.009 200.943 659.253 193.385 653.386 189.927Z" fill="#1F1754"/><path d="M648.537 192.518C642.67 189.061 637.914 191.015 637.914 196.881C637.914 202.747 642.67 210.309 648.537 213.765C654.404 217.221 659.16 215.268 659.16 209.402C659.16 203.536 654.404 195.976 648.537 192.518Z" fill="#0561FC"/><path d="M648.542 196.137C644.673 193.857 641.542 195.146 641.542 199.014C641.542 202.882 644.678 207.866 648.542 210.146C652.406 212.426 655.542 211.137 655.542 207.268C655.542 203.399 652.406 198.417 648.542 196.137Z" fill="white"/><path d="M648.537 200.781C647.237 200.013 646.176 200.447 646.176 201.75C646.252 202.515 646.505 203.253 646.915 203.903C647.325 204.554 647.88 205.101 648.537 205.501C649.841 206.271 650.898 205.836 650.898 204.533C650.822 203.768 650.569 203.03 650.159 202.379C649.749 201.728 649.194 201.181 648.537 200.781Z" fill="#1F1754"/><path d="M585.869 149.336C582.747 147.496 579.939 147.189 577.993 148.189L577.851 148.265L577.835 148.274L573.443 150.639C573.663 150.974 573.957 151.254 574.303 151.456C574.649 151.658 575.037 151.776 575.437 151.803C575.305 152.428 575.241 153.065 575.246 153.703C575.246 159.57 580.002 167.129 585.869 170.586C587 171.274 588.23 171.783 589.517 172.093C589.351 172.394 589.247 172.725 589.211 173.066C589.176 173.408 589.21 173.754 589.311 174.082L593.75 171.727C595.454 170.847 596.493 168.96 596.493 166.219C596.493 160.352 591.737 152.794 585.869 149.336Z" fill="#1F1754"/><path d="M581.02 151.927C575.153 148.469 570.396 150.427 570.396 156.29C570.396 162.153 575.154 169.718 581.02 173.174C586.886 176.63 591.643 174.677 591.643 168.811C591.643 162.945 586.888 155.384 581.02 151.927Z" fill="#0561FC"/><path d="M581.025 155.546C577.156 153.267 574.025 154.555 574.025 158.423C574.025 162.291 577.161 167.275 581.025 169.555C584.889 171.835 588.025 170.546 588.025 166.678C588.025 162.81 584.889 157.825 581.025 155.546Z" fill="white"/><path d="M581.02 160.189C579.72 159.42 578.659 159.855 578.659 161.158C578.736 161.923 578.989 162.66 579.398 163.311C579.808 163.962 580.363 164.509 581.02 164.909C582.324 165.678 583.381 165.245 583.381 163.941C583.305 163.176 583.052 162.438 582.642 161.787C582.232 161.136 581.677 160.589 581.02 160.189Z" fill="#1F1754"/><path d="M617.273 162.371L611.813 159.144C611.272 158.823 610.828 159.16 610.828 159.892V160.751C610.834 161.124 610.926 161.49 611.097 161.822C611.268 162.153 611.513 162.441 611.813 162.662L617.273 165.888C617.815 166.209 618.258 165.873 618.258 165.141V164.282C618.252 163.909 618.16 163.543 617.989 163.211C617.818 162.88 617.573 162.592 617.273 162.371" fill="white"/><path d="M723.51 181.376L677.746 207.234C676.92 207.814 676.243 208.581 675.77 209.472C675.297 210.363 675.04 211.353 675.022 212.362V215.473C675.022 217.449 676.248 218.373 677.746 217.528L723.51 191.674C724.336 191.093 725.013 190.326 725.487 189.434C725.96 188.542 726.216 187.551 726.234 186.541V183.431C726.234 181.454 725.007 180.53 723.51 181.376Z" fill="#3C90F6"/><path d="M680.095 208.167L688.647 203.295C689.517 202.799 690.23 203.336 690.23 204.49V205.844C690.22 206.433 690.071 207.012 689.796 207.533C689.521 208.054 689.128 208.503 688.647 208.844L680.095 213.71C679.224 214.21 678.512 213.668 678.512 212.51V211.165C678.522 210.576 678.671 209.997 678.946 209.476C679.221 208.955 679.614 208.506 680.095 208.165" fill="white"/><path d="M712.304 189.863L720.856 184.99C721.727 184.495 722.44 185.032 722.44 186.186V187.539C722.43 188.128 722.281 188.707 722.006 189.228C721.731 189.749 721.337 190.198 720.856 190.539L712.304 195.406C711.434 195.906 710.722 195.365 710.722 194.211V192.861C710.732 192.272 710.88 191.693 711.155 191.172C711.43 190.651 711.824 190.202 712.304 189.861" fill="white"/><path d="M685.347 157.663L653.012 175.745L638.267 149.215L685.347 157.663Z" fill="#1F1754"/><path d="M632.376 117.952L614.876 107.524L571.966 132.011L607.32 153.066V134.251C607.32 133.726 607.458 133.21 607.72 132.755C607.982 132.3 608.358 131.922 608.812 131.658L632.376 117.952Z" fill="#1F1754"/><path d="M945.826 394.921L967.226 455.981C968.012 458.222 969.412 460.197 971.266 461.681C973.121 463.165 975.355 464.098 977.714 464.373L1095.31 478.073C1102.01 478.857 1108.79 477.371 1114.54 473.853L1176.54 438.211C1178.18 437.209 1179.56 435.848 1180.6 434.231C1181.63 432.615 1182.28 430.784 1182.5 428.879L1182.59 419.33C1182.26 423.297 1180.1 413.518 1176.54 415.697L1114.54 451.339C1108.78 454.859 1102.01 456.347 1095.31 455.566L977.711 441.866C975.352 441.591 973.118 440.658 971.263 439.174C969.409 437.69 968.009 435.715 967.223 433.474L945.826 382.34C945.526 381.484 945.112 389.078 945.112 389.078C945.194 391.042 945.433 392.996 945.826 394.921V394.921Z" fill="#B1BAC9"/><path d="M1161.64 355.508L1181.96 417.095C1182.85 419.809 1182.8 422.745 1181.82 425.428C1180.83 428.111 1178.97 430.382 1176.54 431.874L1114.54 467.516C1108.78 471.036 1102.01 472.524 1095.31 471.743L977.708 458.043C975.349 457.768 973.115 456.835 971.26 455.351C969.406 453.867 968.006 451.892 967.22 449.651L945.82 388.591C944.843 385.805 944.871 382.766 945.897 379.998C946.923 377.23 948.884 374.908 951.441 373.432L1014.19 337.195C1019.79 333.964 1026.28 332.617 1032.71 333.354L1151.05 346.894C1153.45 347.169 1155.73 348.127 1157.6 349.653C1159.48 351.18 1160.88 353.211 1161.64 355.508" fill="white"/><path d="M1109.09 468.002C1101.37 472.054 1099.82 471.436 1090.33 466.062L1005.99 417.671L1000.66 414.612C995.474 411.712 995.896 408.206 1000.91 405.3L1048.63 377.883C1053.31 375.067 1056.55 375.697 1062.03 378.914L1157.73 433.906C1160.86 435.745 1160.64 438.338 1157.25 440.386L1109.09 468.002Z" fill="black" fill-opacity="0.1"/><path d="M1055.83 380.074C1094.99 417.141 1106.54 442.293 1090.48 455.531C1090.48 455.531 1055.79 435.348 986.72 395.202C983.425 393.534 982.278 390.802 982.208 386.734C982.267 360.365 982.049 347.566 981.908 346.593L1055.83 380.074Z" fill="#0561FC"/><path d="M1132.26 407.799C1114.02 411.45 1097.41 420.791 1084.81 434.479C1088.55 440.86 1090.51 448.125 1090.49 455.52L1137.94 428.845C1137.96 421.449 1136 414.182 1132.26 407.799" fill="#0561FC"/><path d="M1113.28 392.175C1087.64 400.317 1071.82 409.211 1065.82 418.857L1084.81 434.475L1132.26 407.799L1113.28 392.175Z" fill="#0561FC"/><path d="M1113.28 392.172L1065.83 418.857L1053.83 395.835C1051.27 391.014 1049.01 386.949 1042.43 383.293L984.577 349.672C980.937 347.581 981.01 345.465 984.795 343.325L1020.54 322.49C1023.45 320.69 1026.34 320.922 1029.75 322.928L1088.45 356.619C1093.82 359.665 1097.91 363.145 1101.05 369.231L1113.28 392.172Z" fill="#659CEA"/><path d="M1057.31 396.034L1099.39 372.506L1109.09 390.718L1098.14 396.841C1097.35 396.783 1096.57 396.796 1095.79 396.796C1094.03 396.794 1092.27 397.081 1090.6 397.645C1090.15 397.744 1089.71 397.86 1089.28 397.995C1089.02 398.062 1088.77 398.135 1088.52 398.214C1087.97 398.336 1087.42 398.488 1086.87 398.668C1086.53 398.76 1086.18 398.868 1085.84 398.979C1085.5 399.055 1085.16 399.142 1084.82 399.239C1084.23 399.364 1083.65 399.522 1083.08 399.712C1082.46 399.859 1081.85 400.042 1081.26 400.261C1080.7 400.407 1080.15 400.583 1079.6 400.788C1079.19 400.91 1078.78 401.003 1078.37 401.13C1078.04 401.216 1077.72 401.312 1077.4 401.417C1076.85 401.548 1076.31 401.706 1075.78 401.892C1075.15 402.042 1074.52 402.231 1073.91 402.456C1073.33 402.608 1072.76 402.792 1072.2 403.007L1074.42 402.12H1068.39C1068.03 402.021 1067.67 401.936 1067.31 401.863C1066.99 401.73 1066.66 401.61 1066.33 401.504C1065.91 401.312 1065.49 401.129 1065.05 400.965C1064.42 400.628 1063.77 400.333 1063.09 400.083C1062.94 399.992 1062.8 399.906 1062.66 399.809C1061.23 398.693 1059.63 397.808 1057.92 397.187L1057.31 396.034Z" fill="#1F1754"/><path d="M1024.91 394.353L1057.14 413.328L1048.77 397.271C1046.73 392.512 1043.16 388.576 1038.61 386.094L1024.9 378.121C1024.9 388.942 1024.91 394.353 1024.91 394.353" fill="#1F1754"/><path d="M1020.76 375.494L1003.18 365.336V381.608L1020.76 391.766V375.494Z" fill="#1F1754"/><path d="M999.89 363.546L986.59 355.864V372.136L999.89 379.818V363.546Z" fill="#1F1754"/><path d="M1067.39 428.427C1064.26 426.587 1061.46 426.28 1059.51 427.28L1059.37 427.355L1059.35 427.364L1054.96 429.729C1055.18 430.064 1055.47 430.343 1055.82 430.545C1056.16 430.747 1056.55 430.866 1056.95 430.893C1056.82 431.518 1056.76 432.155 1056.76 432.793C1056.76 438.66 1061.52 446.219 1067.38 449.676C1068.51 450.365 1069.75 450.873 1071.03 451.182C1070.87 451.483 1070.76 451.814 1070.73 452.156C1070.69 452.498 1070.72 452.843 1070.83 453.172L1075.27 450.82C1076.97 449.937 1078.01 448.051 1078.01 445.31C1078.01 439.443 1073.25 431.885 1067.39 428.427Z" fill="#1F1754"/><path d="M1062.54 431.018C1056.67 427.561 1051.91 429.515 1051.91 435.381C1051.91 441.247 1056.67 448.809 1062.54 452.265C1068.4 455.721 1073.16 453.768 1073.16 447.902C1073.16 442.036 1068.4 434.476 1062.54 431.018Z" fill="#0561FC"/><path d="M1062.54 434.637C1058.67 432.357 1055.54 433.646 1055.54 437.514C1055.54 441.382 1058.68 446.366 1062.54 448.646C1066.41 450.926 1069.54 449.637 1069.54 445.768C1069.54 441.899 1066.41 436.917 1062.54 434.637Z" fill="white"/><path d="M1062.54 439.281C1061.24 438.513 1060.18 438.947 1060.18 440.25C1060.25 441.015 1060.51 441.753 1060.91 442.403C1061.32 443.054 1061.88 443.601 1062.54 444.001C1063.84 444.771 1064.9 444.336 1064.9 443.033C1064.82 442.268 1064.57 441.53 1064.16 440.879C1063.75 440.228 1063.19 439.681 1062.54 439.281Z" fill="#1F1754"/><path d="M999.869 387.836C996.747 385.996 993.939 385.689 991.993 386.689L991.851 386.765L991.835 386.774L987.443 389.139C987.663 389.474 987.957 389.754 988.303 389.956C988.649 390.158 989.037 390.276 989.437 390.303C989.305 390.928 989.241 391.565 989.246 392.203C989.246 398.07 994.002 405.629 999.869 409.086C1001 409.774 1002.23 410.283 1003.52 410.593C1003.35 410.894 1003.25 411.225 1003.21 411.566C1003.18 411.908 1003.21 412.254 1003.31 412.582L1007.75 410.227C1009.45 409.347 1010.49 407.46 1010.49 404.719C1010.49 398.852 1005.74 391.294 999.869 387.836Z" fill="#1F1754"/><path d="M995.02 390.427C989.153 386.969 984.396 388.927 984.396 394.79C984.396 400.653 989.154 408.218 995.02 411.674C1000.89 415.13 1005.64 413.177 1005.64 407.311C1005.64 401.445 1000.89 393.884 995.02 390.427Z" fill="#0561FC"/><path d="M995.025 394.046C991.156 391.767 988.025 393.055 988.025 396.923C988.025 400.791 991.161 405.775 995.025 408.055C998.889 410.335 1002.02 409.046 1002.02 405.178C1002.02 401.31 998.889 396.325 995.025 394.046Z" fill="white"/><path d="M995.02 398.689C993.72 397.92 992.659 398.355 992.659 399.658C992.736 400.423 992.989 401.16 993.398 401.811C993.808 402.462 994.363 403.009 995.02 403.409C996.324 404.178 997.381 403.745 997.381 402.441C997.305 401.676 997.052 400.938 996.642 400.287C996.232 399.636 995.677 399.089 995.02 398.689Z" fill="#1F1754"/><path d="M1031.27 400.871L1025.81 397.644C1025.27 397.323 1024.83 397.66 1024.83 398.392V399.251C1024.83 399.624 1024.93 399.99 1025.1 400.322C1025.27 400.653 1025.51 400.941 1025.81 401.162L1031.27 404.388C1031.82 404.709 1032.26 404.373 1032.26 403.641V402.782C1032.25 402.409 1032.16 402.043 1031.99 401.711C1031.82 401.38 1031.57 401.092 1031.27 400.871" fill="white"/><path d="M1137.51 419.876L1091.75 445.734C1090.92 446.314 1090.24 447.081 1089.77 447.972C1089.3 448.863 1089.04 449.853 1089.02 450.862V453.973C1089.02 455.949 1090.25 456.873 1091.75 456.028L1137.51 430.174C1138.34 429.593 1139.01 428.826 1139.49 427.934C1139.96 427.042 1140.22 426.051 1140.23 425.041V421.931C1140.23 419.954 1139.01 419.03 1137.51 419.876Z" fill="#3C90F6"/><path d="M1094.09 446.667L1102.65 441.795C1103.52 441.299 1104.23 441.836 1104.23 442.99V444.344C1104.22 444.933 1104.07 445.512 1103.8 446.033C1103.52 446.554 1103.13 447.003 1102.65 447.344L1094.09 452.21C1093.22 452.71 1092.51 452.168 1092.51 451.01V449.665C1092.52 449.076 1092.67 448.497 1092.95 447.976C1093.22 447.455 1093.61 447.006 1094.09 446.665" fill="white"/><path d="M1126.3 428.363L1134.86 423.49C1135.73 422.995 1136.44 423.532 1136.44 424.686V426.039C1136.43 426.628 1136.28 427.207 1136.01 427.728C1135.73 428.249 1135.34 428.698 1134.86 429.039L1126.3 433.906C1125.43 434.406 1124.72 433.865 1124.72 432.711V431.361C1124.73 430.772 1124.88 430.193 1125.16 429.672C1125.43 429.151 1125.82 428.702 1126.3 428.361" fill="white"/><path d="M1099.35 396.163L1067.01 414.245L1057.38 396.163H1099.35Z" fill="#1F1754"/><path d="M922.083 186.558C907.844 194.035 904.97 192.897 887.459 182.976L731.759 93.646L721.915 87.998C717.165 85.34 714.967 82.406 715.089 79.469C715.102 74.6023 715.108 72.169 715.107 72.169C715.735 72.1141 716.366 72.2221 716.94 72.4826C717.514 72.7431 718.011 73.1472 718.383 73.656C719.615 72.5725 720.955 71.6194 722.383 70.812L810.473 20.192C819.115 14.992 825.093 16.156 835.205 22.092L1011.86 123.615C1012.08 123.745 1012.3 123.877 1012.5 124.01C1012.55 123.898 1012.6 123.788 1012.67 123.681C1012.99 123.114 1013.46 122.645 1014.03 122.32C1014.6 121.996 1015.24 121.828 1015.89 121.835L1015.96 129.019V129.186C1015.93 131.363 1014.26 133.607 1010.99 135.577L922.083 186.558Z" fill="#7E7E7E"/><path d="M922.083 178.819C907.845 186.296 904.97 185.159 887.459 175.238L731.759 85.907L721.915 80.259C712.348 74.906 713.129 68.435 722.384 63.068L810.474 12.454C819.115 7.254 825.094 8.418 835.205 14.354L1011.87 115.877C1017.66 119.277 1017.25 124.059 1010.99 127.84L922.083 178.819Z" fill="url(#paint2_linear_0_1)"/><path d="M920.438 286.603C911.299 291.403 909.453 290.672 898.214 284.303L798.27 226.963L791.951 223.339C785.81 219.902 786.311 215.748 792.251 212.304L848.795 179.817C854.343 176.481 858.179 177.227 864.67 181.039L978.068 246.197C981.784 248.376 981.524 251.449 977.507 253.875L920.438 286.603Z" fill="black" fill-opacity="0.1"/><path d="M870.816 144.219C872.867 171.708 870.067 189.142 862.416 196.519L826.078 174.527C822.411 175.887 818.507 176.493 814.6 176.311C809.222 176.141 804.049 174.208 799.877 170.809C795.706 167.41 792.767 162.734 791.515 157.501L838.335 130.718C839.116 130.13 839.968 129.642 840.871 129.267V129.267C841.804 128.854 842.821 128.666 843.839 128.719C844.858 128.771 845.85 129.061 846.736 129.567L870.816 144.219Z" fill="#0561FC"/><path d="M821.804 172.652C826.604 200.141 825.545 217.575 818.627 224.952L773.606 199.252C771.92 198.314 771.638 196.836 771.648 195.007C771.648 195.007 771.652 191.366 771.659 184.085C771.959 175.392 771.796 174.761 778.169 168.652L786.84 160.144C790.009 157.077 793.15 156.362 796.261 157.997L821.804 172.652Z" fill="#0561FC"/><path d="M911.647 274.931C907.831 276.24 905.567 275.097 899.16 271.467L820.89 226.562C818.716 225.344 817.673 224.006 817.661 222.662V222.6C817.666 221.029 817.67 199.111 817.674 156.844C871.449 175.69 903.727 192.11 914.506 206.103C913.217 208.548 912.545 211.272 912.549 214.036V233.564C912.545 234.614 912.646 235.662 912.849 236.692V238.371C912.849 239.44 912.95 240.506 913.149 241.556V246.184C913.149 247.252 913.249 248.318 913.449 249.368V256.19C913.225 257.531 913.102 258.875 912.949 260.226C912.853 261.287 912.818 262.354 912.844 263.419C912.763 263.85 912.697 264.288 912.644 264.731C912.357 266.022 912.236 267.393 912.072 268.708C912.042 268.949 912.018 269.189 911.999 269.429C911.759 270.578 911.639 271.749 911.639 272.923V274.932" fill="#0561FC"/><path d="M959.863 180.393C931.354 187.05 914.342 196.714 908.826 209.387C908.881 229.562 908.899 251.585 908.881 275.456C910.199 275.557 912.415 274.792 915.53 273.161L955.567 250.204C957.989 248.776 959.867 247.283 959.9 244.964C959.9 239.749 959.845 218.351 959.863 180.393Z" fill="#4C8DEA"/><path d="M915.529 207.092C908.797 210.627 907.438 210.092 899.159 205.399L820.889 160.494C816.366 157.963 816.736 154.903 821.112 152.366L862.76 128.437C866.845 125.98 869.673 126.528 874.453 129.337L957.978 177.337C960.713 178.939 960.523 181.201 957.565 182.989L915.529 207.092Z" fill="#659CEA"/><path d="M876.469 242.34C872.547 240.129 869.069 240.04 866.869 241.707C863.483 244.2 861.772 245.46 861.735 245.486C862.109 245.817 862.554 246.058 863.036 246.19C863.518 246.322 864.024 246.341 864.515 246.246C864.461 246.693 864.434 247.143 864.434 247.594C864.434 254.243 869.824 262.669 876.473 266.416C877.53 267.024 878.658 267.5 879.832 267.833C879.627 268.396 879.569 269.002 879.662 269.594C879.756 270.186 879.998 270.745 880.367 271.217L885.938 267.15L885.968 267.128L886.068 267.056C887.597 265.9 888.507 263.894 888.507 261.158C888.507 254.514 883.118 246.086 876.469 242.34Z" fill="#1F1754"/><path d="M871.277 246.162C864.629 242.416 859.239 244.768 859.239 251.417C859.239 258.066 864.629 266.491 871.278 270.238C877.927 273.985 883.316 271.632 883.316 264.98C883.316 258.328 877.926 249.907 871.277 246.162Z" fill="#0561FC"/><path d="M871.277 250.767C867.177 248.454 863.844 249.906 863.844 254.011C863.844 258.116 867.172 263.319 871.277 265.632C875.382 267.945 878.71 266.494 878.71 262.388C878.71 258.282 875.382 253.08 871.277 250.767Z" fill="white"/><path d="M871.278 256.147C870.145 255.512 869.228 255.913 869.228 257.047C869.292 257.705 869.512 258.337 869.868 258.894C870.224 259.45 870.708 259.914 871.278 260.247C872.41 260.887 873.328 260.487 873.328 259.355C873.265 258.696 873.046 258.062 872.69 257.504C872.333 256.946 871.849 256.481 871.278 256.147" fill="#1F1754"/><path d="M802.066 201.414C798.144 199.204 794.666 199.114 792.466 200.781C789.08 203.274 787.369 204.534 787.332 204.559C787.706 204.891 788.151 205.132 788.633 205.263C789.115 205.395 789.621 205.414 790.112 205.319C790.058 205.767 790.031 206.217 790.031 206.668C790.031 213.316 795.421 221.742 802.07 225.49C803.126 226.098 804.253 226.574 805.425 226.907C805.22 227.47 805.162 228.076 805.255 228.668C805.349 229.26 805.591 229.818 805.96 230.291L811.532 226.225L811.562 226.202L811.662 226.13C813.194 224.974 814.105 222.967 814.105 220.232C814.105 213.587 808.715 205.16 802.066 201.414Z" fill="#1F1754"/><path d="M796.874 205.235C790.226 201.489 784.836 203.841 784.836 210.49C784.836 217.139 790.226 225.565 796.875 229.311C803.524 233.057 808.913 230.705 808.913 224.053C808.913 217.401 803.523 208.981 796.874 205.235Z" fill="#0561FC"/><path d="M796.875 209.84C792.775 207.527 789.442 208.979 789.442 213.084C789.442 217.189 792.77 222.392 796.875 224.705C800.98 227.018 804.308 225.567 804.308 221.461C804.308 217.355 800.979 212.154 796.875 209.84Z" fill="white"/><path d="M796.874 215.22C795.742 214.585 794.824 214.986 794.824 216.12C794.888 216.778 795.108 217.41 795.464 217.967C795.82 218.523 796.304 218.987 796.874 219.32C798.006 219.96 798.924 219.56 798.924 218.429C798.861 217.77 798.642 217.135 798.286 216.577C797.929 216.02 797.445 215.554 796.874 215.22" fill="#1F1754"/><path d="M809.343 171.679L791.957 161.827C791.533 161.51 791.01 161.355 790.483 161.391C789.955 161.426 789.457 161.648 789.079 162.018V162.018L781.415 170.308C778.882 172.862 779.129 174.946 782.156 176.561L787.332 179.488L799.299 186.298L809.343 191.988C811.381 193.143 813.043 191.888 813.043 189.193V178.674C813.043 175.982 811.376 172.834 809.343 171.679" fill="#1F1754"/><path d="M811.933 197.119L805.109 193.224C804.43 192.836 803.875 193.255 803.875 194.156C803.883 194.616 803.998 195.068 804.213 195.475C804.427 195.882 804.734 196.233 805.109 196.499L811.932 200.399C812.613 200.779 813.168 200.364 813.168 199.462C813.16 199.002 813.044 198.55 812.83 198.143C812.615 197.736 812.308 197.385 811.933 197.119" fill="white"/><path d="M908.8 236.295L817.671 183.826V178.626L908.8 231.094V236.295Z" fill="white"/><path d="M908.8 250.411L817.671 197.943V192.743L908.8 245.211V250.411Z" fill="white"/><path d="M690.231 700.154V436.51C690.231 434.948 690.772 433.435 691.763 432.228L775.983 329.588C777.011 328.335 778.456 327.494 780.054 327.219C781.651 326.943 783.294 327.252 784.683 328.088L958.719 432.931" stroke="#32C5FF" stroke-width="0.844" stroke-miterlimit="10"/><path d="M671.231 700.154V426.379C671.231 424.897 671.718 423.456 672.618 422.279L784.831 275.464" stroke="#FC722E" stroke-width="0.844" stroke-miterlimit="10"/><defs><linearGradient id="paint0_linear_0_1" x1="1124.26" y1="221.008" x2="1114.65" y2="299.437" gradientUnits="userSpaceOnUse"><stop stop-color="#F5F5F5"/><stop offset="1" stop-color="#E6E6E6"/></linearGradient><linearGradient id="paint1_linear_0_1" x1="816.638" y1="151.725" x2="797.69" y2="306.369" gradientUnits="userSpaceOnUse"><stop stop-color="#F5F5F5"/><stop offset="1" stop-color="#E6E6E6"/></linearGradient><linearGradient id="paint2_linear_0_1" x1="859.504" y1="64.2988" x2="852.628" y2="120.512" gradientUnits="userSpaceOnUse"><stop stop-color="#F5F5F5"/><stop offset="1" stop-color="#E6E6E6"/></linearGradient></defs></svg>